<?xml version="1.0" encoding="utf-8"?>
<!-- Generator: Adobe Illustrator 17.1.0, SVG Export Plug-In . SVG Version: 6.00 Build 0)  -->
<!DOCTYPE svg PUBLIC "-//W3C//DTD SVG 1.1//EN" "http://www.w3.org/Graphics/SVG/1.1/DTD/svg11.dtd">
<svg version="1.1" id="bitpay_wordmark" xmlns="http://www.w3.org/2000/svg" xmlns:xlink="http://www.w3.org/1999/xlink" x="0px"
	 y="0px" viewBox="0 0 525.8 279.3" enable-background="new 0 0 525.8 279.3" xml:space="preserve">
<g>
	<path id="y_2_" fill="#FFFFFF" d="M452.3,104.6h-19.7l-11.4,48.1h0l-1.6,6.6c-1.1,0.3-2.2,0.6-3.3,0.8c-2,0.4-4.1,0.6-6.3,0.6
		c-2.5,0-4.5-0.4-6-1.1c-1.4-0.7-2.5-1.7-3.1-3.1c-0.6-1.3-0.8-2.9-0.7-4.7c0.1-1.8,0.5-3.8,1-5.8l6-25l3.9-16.6l0,0h-20.1
		l-9.1,38.4c-1.1,4.6-1.7,9-1.9,13.2c-0.2,4.2,0.5,7.8,1.9,11.1c1.4,3.2,3.9,5.7,7.3,7.6c3.4,1.9,8.3,2.8,14.5,2.8
		c4.3,0,8.1-0.4,11.3-1.1c0.1,0,0.3-0.1,0.4-0.1l0,0c-0.9,4-2.7,7.2-5.5,9.7c-2.9,2.5-7.1,3.8-12.7,3.8c-2.4,0-4.6-0.1-6.6-0.4
		l-3.9,16.3c2.6,0.3,5.5,0.5,8.7,0.5c6,0,11.2-0.7,15.7-2c4.5-1.4,8.3-3.4,11.6-6.2c3.2-2.8,5.9-6.3,8.1-10.4
		c2.2-4.2,3.9-9.1,5.2-14.9l13.6-57.2c0,0,0,0,0,0L452.3,104.6z"/>
	<path id="a_2_" fill="#FFFFFF" d="M369.8,145.7c-1.2,5-1.6,10.1-1.1,15.1c0.5,5.1,2.5,12.8,4.4,16.7h-19c-2.3-3.9-2.2-5.8-2.7-7
		c-2.5,2-5.2,3.7-8.2,5c-3,1.3-6.3,2-10.1,2c-4.4,0-8.2-0.8-11.3-2.3c-3.1-1.5-5.7-3.6-7.7-6.2c-2-2.6-3.4-5.6-4.3-9.1
		c-0.9-3.5-1.3-7.2-1.3-11.2c0-6.1,1.1-11.8,3.2-17.2c2.2-5.4,5.2-10.1,9-14.1c3.8-4,13.1-12.9,28.3-12.9c6.6,0,15.4,0,30.5,0
		L369.8,145.7z M355.9,121.2c-9.2,0-10.9,0-14.7,1.9c-2.7,1.4-4.9,3.5-6.8,5.9c-1.9,2.4-3.5,5.2-4.6,8.4c-1.1,3.2-1.7,6.5-1.7,9.9
		c0,4.2,0.7,7.6,2.1,10.1c1.4,2.5,4,3.7,7.8,3.7c2,0,3.9-0.4,5.5-1.2c1.6-0.8,3.4-2.1,5.2-4c0.2-2.2,0.5-4.5,0.9-6.9
		c0.4-2.4,0.9-4.7,1.3-6.7L355.9,121.2"/>
	<path id="p_2_" fill="#FFFFFF" d="M303.1,133.5c0,6.5-1.1,12.4-3.2,17.8c-2.1,5.4-5.1,10-8.9,13.9c-3.8,3.9-8.3,6.9-13.6,9.1
		c-5.3,2.2-11,3.3-17.2,3.3c-3,0-6-0.3-9.1-0.8l-6,24.1h-19.7l22.9-96.2c3.3,0,20.9,0,26.3,0c5,0,9.3,0.8,12.8,2.3
		c3.6,1.5,6.5,3.6,8.9,6.2c2.3,2.6,4,5.7,5.1,9.2C302.6,125.8,303.1,129.5,303.1,133.5z M254.8,160.8c1.5,0.4,3.4,0.5,5.6,0.5
		c3.5,0,6.6-0.6,9.5-1.9c2.8-1.3,5.3-3.1,7.3-5.4c2-2.3,3.5-5.1,4.7-8.3c1.1-3.2,1.7-6.8,1.7-10.7c0-3.8-0.8-7.1-2.5-9.7
		c-1.7-2.7-4.6-4.1-8.8-4.1c-2.9,0-7.8,0-7.8,0L254.8,160.8z"/>
	<path id="t_2_" fill="#FFFFFF" d="M213.4,160.8c-2.5,0-4.5-0.4-6-1.1c-1.4-0.7-2.5-1.7-3.1-3.1c-0.6-1.3-0.8-2.9-0.7-4.7
		c0.1-1.8,0.5-3.8,1-5.8l6-25h22.4l4.1-16.6h-22.5l5.2-21l-21,3.3L185.5,143c-1.1,4.6-1.7,9-1.9,13.2c-0.2,4.2,0.5,7.8,1.9,11.1
		c1.4,3.2,3.9,5.7,7.3,7.6c3.4,1.9,8.3,2.8,14.5,2.8c4.3,0,8.1-0.4,11.3-1.1c0.3-0.1,0.8-0.2,1.1-0.3l4.1-17.1
		c-1.4,0.5-2.8,0.8-4.1,1C217.7,160.6,215.6,160.8,213.4,160.8z"/>
	<polygon id="i_bottom_6_" fill="#FFFFFF" points="163.3,104.6 145.9,177.6 165.6,177.6 182.9,104.6 	"/>
	<polygon id="i_top_2_" fill="#FFFFFF" points="185,96.2 188,83.5 168.3,83.5 165.3,96.2 	"/>
	<path id="b_2_" fill="#FFFFFF" d="M119.7,104.7c4.2,0,7.9,0.8,11,2.3c3.1,1.5,5.6,3.5,7.7,6.1c2,2.6,3.5,5.6,4.5,9
		c1,3.4,1.5,7.1,1.5,11.1c0,6.1-1.1,11.8-3.4,17.3c-2.3,5.4-5.3,10.2-9.2,14.2c-3.9,4-8.5,7.2-13.8,9.5c-5.3,2.3-11,3.5-17.2,3.5
		c-0.8,0-2.2,0-4.2-0.1c-2,0-4.3-0.2-6.8-0.6c-2.6-0.4-5.3-0.9-8.1-1.6c-2.9-0.7-5.6-1.7-8.1-2.9l22.9-96.2l20.5-3.2l-8.1,34.1
		c1.8-0.8,3.4-1.4,5.2-1.8C115.8,104.9,117.7,104.7,119.7,104.7z M102.5,161.3c3.1,0,6-0.7,8.7-2.3c2.7-1.5,5.1-3.5,7.1-6
		c2-2.5,3.6-5.4,4.7-8.5c1.1-3.2,1.7-6.5,1.7-9.9c0-4.2-0.7-7.5-2.1-9.9c-1.4-2.4-4.3-3.5-8.1-3.5c-1.2,0-2.5,0.1-4.5,0.6
		c-2,0.4-3.7,1.4-5.3,2.8l-8.6,36.3c2.6,0.4,3.4,0.5,4.1,0.5C100.7,161.3,101.5,161.3,102.5,161.3z"/>
</g>
</svg>
